<svg xmlns="http://www.w3.org/2000/svg" width="96" height="96" viewBox="0 0 96 96" fill="none"><path d="M75.68 24.04C74.88 21.68 72.64 20 70 20H26C23.36 20 21.16 21.68 20.32 24.04L12 48V80C12 82.2 13.8 84 16 84H20C22.2 84 24 82.2 24 80V76H72V80C72 82.2 73.8 84 76 84H80C82.2 84 84 82.2 84 80V48L75.68 24.04ZM26 64C22.68 64 20 61.32 20 58C20 54.68 22.68 52 26 52C29.32 52 32 54.68 32 58C32 61.32 29.32 64 26 64ZM70 64C66.68 64 64 61.32 64 58C64 54.68 66.68 52 70 52C73.32 52 76 54.68 76 58C76 61.32 73.32 64 70 64ZM20 44L26 26H70L76 44H20Z" fill="#0B72F1"></path></svg>