<svg xmlns:xlink="http://www.w3.org/1999/xlink" xmlns="http://www.w3.org/2000/svg" width="30" height="31" viewBox="0 0 30 31" fill="none"><g clip-path="url(#clip0_74_1279)" fill="#6EC1E4"><path d="M8.35519 14.0333C10.0944 17.4643 12.8966 20.2649 16.3147 22.0229L18.9719 19.3556C19.298 19.0283 19.7811 18.9192 20.2038 19.0647C21.5566 19.5132 23.018 19.7557 24.5157 19.7557C25.18 19.7557 25.7235 20.3013 25.7235 20.9681V25.1993C25.7235 25.8661 25.18 26.4117 24.5157 26.4117C13.1744 26.4117 3.98291 17.1855 3.98291 5.80125C3.98291 5.13444 4.52643 4.58887 5.19072 4.58887H9.41807C10.0824 4.58887 10.6259 5.13444 10.6259 5.80125C10.6259 7.31672 10.8674 8.77157 11.3143 10.1294C11.4472 10.5538 11.3506 11.0266 11.0124 11.3661L8.35519 14.0333Z" fill="#0B72F1"></path></g><defs><clipPath id="clip0_74_1279"><rect width="28.9875" height="29.0971" fill="white" transform="translate(0.359375 0.95166)"></rect></clipPath></defs></svg>