<svg xmlns="http://www.w3.org/2000/svg" xmlns:xlink="http://www.w3.org/1999/xlink" viewBox="0,0,256,256" width="24px" height="24px" fill-rule="nonzero"><g fill="#5c7cfa" fill-rule="nonzero" stroke="none" stroke-width="1" stroke-linecap="butt" stroke-linejoin="miter" stroke-miterlimit="10" stroke-dasharray="" stroke-dashoffset="0" font-family="none" font-weight="none" font-size="none" text-anchor="none" style="mix-blend-mode: normal"><g transform="scale(10.66667,10.66667)"><path d="M12.545,12.151v0c0,1.054 0.855,1.909 1.909,1.909h3.536c-0.607,1.972 -2.101,3.467 -4.26,3.866c-3.431,0.635 -6.862,-1.865 -7.19,-5.339c-0.34,-3.595 2.479,-6.62 6.005,-6.62c1.002,0 1.946,0.246 2.777,0.679c0.757,0.395 1.683,0.236 2.286,-0.368v0c0.954,-0.954 0.701,-2.563 -0.498,-3.179c-1.678,-0.862 -3.631,-1.264 -5.692,-1.038c-4.583,0.502 -8.31,4.226 -8.812,8.809c-0.661,6.03 4.043,11.13 9.939,11.13c6.368,0 8.972,-4.515 9.499,-8.398c0.242,-1.78 -1.182,-3.352 -2.978,-3.354l-4.61,-0.006c-1.055,-0.002 -1.911,0.853 -1.911,1.909z"></path></g></g></svg>